<?xml version="1.0" encoding="UTF-8"?><svg xmlns="http://www.w3.org/2000/svg" xmlns:xlink="http://www.w3.org/1999/xlink" fill-opacity="1" color-rendering="auto" color-interpolation="auto" text-rendering="auto" stroke="black" stroke-linecap="square" width="410" stroke-miterlimit="10" shape-rendering="auto" stroke-opacity="1" fill="black" stroke-dasharray="none" font-weight="normal" stroke-width="1" height="200" font-family="'Dialog'" font-style="normal" stroke-linejoin="miter" font-size="12px" stroke-dashoffset="0" image-rendering="auto">
  <!--Generated by ySVG 2.5-->
  <defs id="genericDefs"/>
  <g>
    <defs id="defs1">
      <clipPath clipPathUnits="userSpaceOnUse" id="clipPath1">
        <path d="M0 0 L410 0 L410 200 L0 200 L0 0 Z"/>
      </clipPath>
      <clipPath clipPathUnits="userSpaceOnUse" id="clipPath2">
        <path d="M-15 -15 L395 -15 L395 185 L-15 185 L-15 -15 Z"/>
      </clipPath>
    </defs>
    <g fill="white" text-rendering="geometricPrecision" shape-rendering="geometricPrecision" transform="translate(15,15)" stroke="white">
      <rect x="-15" width="410" height="200" y="-15" clip-path="url(#clipPath2)" stroke="none"/>
    </g>
    <g fill="rgb(255,204,0)" text-rendering="geometricPrecision" shape-rendering="geometricPrecision" transform="matrix(1,0,0,1,15,15)" stroke="rgb(255,204,0)">
      <circle r="15" clip-path="url(#clipPath2)" cx="190" cy="15" stroke="none"/>
    </g>
    <g text-rendering="geometricPrecision" stroke-miterlimit="1.45" shape-rendering="geometricPrecision" font-family="sans-serif" transform="matrix(1,0,0,1,15,15)" stroke-linecap="butt">
      <text x="176.9893" xml:space="preserve" y="19.7139" clip-path="url(#clipPath2)" stroke="none">body</text>
      <circle fill="none" r="15" clip-path="url(#clipPath2)" cx="190" cy="15"/>
    </g>
    <g fill="rgb(255,204,0)" text-rendering="geometricPrecision" shape-rendering="geometricPrecision" transform="matrix(1,0,0,1,15,15)" stroke="rgb(255,204,0)">
      <circle r="15" clip-path="url(#clipPath2)" cx="15" cy="155" stroke="none"/>
    </g>
    <g text-rendering="geometricPrecision" stroke-miterlimit="1.45" shape-rendering="geometricPrecision" font-family="sans-serif" transform="matrix(1,0,0,1,15,15)" stroke-linecap="butt">
      <text x="8.3262" xml:space="preserve" y="159.7139" clip-path="url(#clipPath2)" stroke="none">p1</text>
      <circle fill="none" r="15" clip-path="url(#clipPath2)" cx="15" cy="155"/>
    </g>
    <g fill="rgb(255,204,0)" text-rendering="geometricPrecision" shape-rendering="geometricPrecision" transform="matrix(1,0,0,1,15,15)" stroke="rgb(255,204,0)">
      <circle r="15" clip-path="url(#clipPath2)" cx="115" cy="155" stroke="none"/>
    </g>
    <g text-rendering="geometricPrecision" stroke-miterlimit="1.45" shape-rendering="geometricPrecision" font-family="sans-serif" transform="matrix(1,0,0,1,15,15)" stroke-linecap="butt">
      <text x="108.3262" xml:space="preserve" y="159.7139" clip-path="url(#clipPath2)" stroke="none">p3</text>
      <circle fill="none" r="15" clip-path="url(#clipPath2)" cx="115" cy="155"/>
    </g>
    <g fill="rgb(255,204,0)" text-rendering="geometricPrecision" shape-rendering="geometricPrecision" transform="matrix(1,0,0,1,15,15)" stroke="rgb(255,204,0)">
      <circle r="15" clip-path="url(#clipPath2)" cx="65" cy="155" stroke="none"/>
    </g>
    <g text-rendering="geometricPrecision" stroke-miterlimit="1.45" shape-rendering="geometricPrecision" font-family="sans-serif" transform="matrix(1,0,0,1,15,15)" stroke-linecap="butt">
      <text x="58.3262" xml:space="preserve" y="159.7139" clip-path="url(#clipPath2)" stroke="none">p2</text>
      <circle fill="none" r="15" clip-path="url(#clipPath2)" cx="65" cy="155"/>
    </g>
    <g fill="rgb(255,204,0)" text-rendering="geometricPrecision" shape-rendering="geometricPrecision" transform="matrix(1,0,0,1,15,15)" stroke="rgb(255,204,0)">
      <circle r="15" clip-path="url(#clipPath2)" cx="315" cy="155" stroke="none"/>
    </g>
    <g text-rendering="geometricPrecision" stroke-miterlimit="1.45" shape-rendering="geometricPrecision" font-family="sans-serif" transform="matrix(1,0,0,1,15,15)" stroke-linecap="butt">
      <text x="308.3262" xml:space="preserve" y="159.7139" clip-path="url(#clipPath2)" stroke="none">p7</text>
      <circle fill="none" r="15" clip-path="url(#clipPath2)" cx="315" cy="155"/>
    </g>
    <g fill="rgb(255,204,0)" text-rendering="geometricPrecision" shape-rendering="geometricPrecision" transform="matrix(1,0,0,1,15,15)" stroke="rgb(255,204,0)">
      <circle r="15" clip-path="url(#clipPath2)" cx="190" cy="85" stroke="none"/>
    </g>
    <g text-rendering="geometricPrecision" stroke-miterlimit="1.45" shape-rendering="geometricPrecision" font-family="sans-serif" transform="matrix(1,0,0,1,15,15)" stroke-linecap="butt">
      <text x="178.9932" xml:space="preserve" y="89.7139" clip-path="url(#clipPath2)" stroke="none">div1</text>
      <circle fill="none" r="15" clip-path="url(#clipPath2)" cx="190" cy="85"/>
    </g>
    <g fill="rgb(255,204,0)" text-rendering="geometricPrecision" shape-rendering="geometricPrecision" transform="matrix(1,0,0,1,15,15)" stroke="rgb(255,204,0)">
      <circle r="15" clip-path="url(#clipPath2)" cx="165" cy="155" stroke="none"/>
    </g>
    <g text-rendering="geometricPrecision" stroke-miterlimit="1.45" shape-rendering="geometricPrecision" font-family="sans-serif" transform="matrix(1,0,0,1,15,15)" stroke-linecap="butt">
      <text x="158.3262" xml:space="preserve" y="159.7139" clip-path="url(#clipPath2)" stroke="none">p4</text>
      <circle fill="none" r="15" clip-path="url(#clipPath2)" cx="165" cy="155"/>
    </g>
    <g fill="rgb(255,204,0)" text-rendering="geometricPrecision" shape-rendering="geometricPrecision" transform="matrix(1,0,0,1,15,15)" stroke="rgb(255,204,0)">
      <circle r="15" clip-path="url(#clipPath2)" cx="265" cy="155" stroke="none"/>
    </g>
    <g text-rendering="geometricPrecision" stroke-miterlimit="1.45" shape-rendering="geometricPrecision" font-family="sans-serif" transform="matrix(1,0,0,1,15,15)" stroke-linecap="butt">
      <text x="258.3262" xml:space="preserve" y="159.7139" clip-path="url(#clipPath2)" stroke="none">p6</text>
      <circle fill="none" r="15" clip-path="url(#clipPath2)" cx="265" cy="155"/>
    </g>
    <g fill="rgb(255,204,0)" text-rendering="geometricPrecision" shape-rendering="geometricPrecision" transform="matrix(1,0,0,1,15,15)" stroke="rgb(255,204,0)">
      <circle r="15" clip-path="url(#clipPath2)" cx="215" cy="155" stroke="none"/>
    </g>
    <g text-rendering="geometricPrecision" stroke-miterlimit="1.45" shape-rendering="geometricPrecision" font-family="sans-serif" transform="matrix(1,0,0,1,15,15)" stroke-linecap="butt">
      <text x="208.3262" xml:space="preserve" y="159.7139" clip-path="url(#clipPath2)" stroke="none">p5</text>
      <circle fill="none" r="15" clip-path="url(#clipPath2)" cx="215" cy="155"/>
    </g>
    <g fill="rgb(255,204,0)" text-rendering="geometricPrecision" shape-rendering="geometricPrecision" transform="matrix(1,0,0,1,15,15)" stroke="rgb(255,204,0)">
      <circle r="15" clip-path="url(#clipPath2)" cx="365" cy="155" stroke="none"/>
    </g>
    <g text-rendering="geometricPrecision" stroke-miterlimit="1.45" shape-rendering="geometricPrecision" font-family="sans-serif" transform="matrix(1,0,0,1,15,15)" stroke-linecap="butt">
      <text x="358.3262" xml:space="preserve" y="159.7139" clip-path="url(#clipPath2)" stroke="none">p8</text>
      <circle fill="none" r="15" clip-path="url(#clipPath2)" cx="365" cy="155"/>
      <path fill="none" d="M190 30 L190 62" clip-path="url(#clipPath2)"/>
      <path d="M190 70 L195 58 L190 61 L185 58 Z" clip-path="url(#clipPath2)" stroke="none"/>
      <path fill="none" d="M176.0728 90.5709 L36.355 146.458" clip-path="url(#clipPath2)"/>
      <path d="M28.9272 149.4291 L41.9258 149.6148 L37.2834 146.0866 L38.2119 140.3301 Z" clip-path="url(#clipPath2)" stroke="none"/>
      <path fill="none" d="M176.9124 92.329 L85.0676 143.7621" clip-path="url(#clipPath2)"/>
      <path d="M78.0876 147.6709 L91.0007 146.1702 L85.9401 143.2735 L86.1146 137.4452 Z" clip-path="url(#clipPath2)" stroke="none"/>
      <path fill="none" d="M179.0342 95.2348 L131.8143 139.3067" clip-path="url(#clipPath2)"/>
      <path d="M125.9658 144.7652 L138.1501 140.2327 L132.5453 138.6244 L131.3269 132.9221 Z" clip-path="url(#clipPath2)" stroke="none"/>
      <path fill="none" d="M203.0876 92.329 L294.9324 143.7621" clip-path="url(#clipPath2)"/>
      <path d="M301.9124 147.6709 L293.8854 137.4452 L294.0599 143.2735 L288.9993 146.1702 Z" clip-path="url(#clipPath2)" stroke="none"/>
      <path fill="none" d="M184.955 99.1261 L172.7357 133.3399" clip-path="url(#clipPath2)"/>
      <path d="M170.045 140.8739 L178.7898 131.2547 L173.0721 132.3982 L169.3724 127.8913 Z" clip-path="url(#clipPath2)" stroke="none"/>
      <path fill="none" d="M200.9658 95.2348 L248.1857 139.3067" clip-path="url(#clipPath2)"/>
      <path d="M254.0342 144.7652 L248.6731 132.9221 L247.4547 138.6244 L241.8499 140.2327 Z" clip-path="url(#clipPath2)" stroke="none"/>
      <path fill="none" d="M195.045 99.1261 L207.2643 133.3399" clip-path="url(#clipPath2)"/>
      <path d="M209.955 140.8739 L210.6276 127.8913 L206.9279 132.3982 L201.2102 131.2547 Z" clip-path="url(#clipPath2)" stroke="none"/>
      <path fill="none" d="M203.9272 90.5709 L343.6451 146.458" clip-path="url(#clipPath2)"/>
      <path d="M351.0728 149.4291 L341.7881 140.33 L342.7166 146.0866 L338.0742 149.6148 Z" clip-path="url(#clipPath2)" stroke="none"/>
    </g>
  </g>
</svg>
